<svg width="25" height="25" viewBox="0 0 25 25" fill="none" xmlns="http://www.w3.org/2000/svg">
<mask id="mask0_418_36" style="mask-type:alpha" maskUnits="userSpaceOnUse" x="0" y="0" width="25" height="25">
<rect x="0.406006" y="0.595703" width="24" height="24" fill="#D9D9D9"/>
</mask>
<g mask="url(#mask0_418_36)">
<path d="M16.156 20.5957H4.40601C3.85601 20.5957 3.38517 20.3999 2.99351 20.0082C2.60184 19.6165 2.40601 19.1457 2.40601 18.5957V6.5957C2.40601 6.0457 2.60184 5.57487 2.99351 5.1832C3.38517 4.79154 3.85601 4.5957 4.40601 4.5957H20.406C20.956 4.5957 21.4268 4.79154 21.8185 5.1832C22.2102 5.57487 22.406 6.0457 22.406 6.5957V18.5957C22.406 19.1457 22.2102 19.6165 21.8185 20.0082C21.4268 20.3999 20.956 20.5957 20.406 20.5957H19.006L14.306 15.8957C13.956 16.129 13.5768 16.304 13.1685 16.4207C12.7602 16.5374 12.3393 16.5957 11.906 16.5957C10.656 16.5957 9.59351 16.1582 8.71851 15.2832C7.84351 14.4082 7.40601 13.3457 7.40601 12.0957C7.40601 10.8457 7.84351 9.7832 8.71851 8.9082C9.59351 8.0332 10.656 7.5957 11.906 7.5957C13.156 7.5957 14.2185 8.0332 15.0935 8.9082C15.9685 9.7832 16.406 10.8457 16.406 12.0957C16.406 12.5457 16.3477 12.9707 16.231 13.3707C16.1143 13.7707 15.9393 14.1457 15.706 14.4957L19.806 18.5957H20.406V6.5957H4.40601V18.5957H14.156L16.156 20.5957ZM11.906 14.5957C12.606 14.5957 13.1977 14.354 13.681 13.8707C14.1643 13.3874 14.406 12.7957 14.406 12.0957C14.406 11.3957 14.1643 10.804 13.681 10.3207C13.1977 9.83737 12.606 9.5957 11.906 9.5957C11.206 9.5957 10.6143 9.83737 10.131 10.3207C9.64767 10.804 9.40601 11.3957 9.40601 12.0957C9.40601 12.7957 9.64767 13.3874 10.131 13.8707C10.6143 14.354 11.206 14.5957 11.906 14.5957Z" fill="#1C1B1F"/>
</g>
</svg>
